mtllib ./Arrow.mtl
o Arrow

g Arrow

v -2.5 -0.5 -3
v -1.5 -0.5 -3
v -1.5 0.5 -3
v -2.5 0.5 -3
v -2.5 -0.5 -2
v -2.5 0.5 -2
v -1.5 0.5 -2
v -1.5 -0.5 -2
v -2.5 -0.5 -1
v -1.5 -0.5 -1
v -1.5 0.5 -1
v -2.5 0.5 -1
v -1.5 -1.5 -3
v -0.5 -1.5 -3
v -0.5 -0.5 -3
v -1.5 -1.5 -2
v -0.5 -1.5 -2
v -1.5 -1.5 -1
v -0.5 -1.5 -1
v -0.5 -0.5 -1
v -0.5 0.5 -3
v -1.5 -0.5 0
v -1.5 0.5 0
v -0.5 0.5 -1
v -0.5 0.5 0
v -0.5 -0.5 0
v -1.5 -0.5 1
v -0.5 -0.5 1
v -0.5 0.5 1
v -1.5 0.5 1
v -0.5 -2.5 -3
v 0.5 -2.5 -3
v 0.5 -1.5 -3
v 0.5 -2.5 -2
v 0.5 -1.5 -2
v -0.5 -2.5 -2
v -0.5 -2.5 -1
v 0.5 -2.5 -1
v 0.5 -1.5 -1
v 0.5 -0.5 -3
v 0.5 -1.5 0
v 0.5 -0.5 0
v 0.5 -0.5 -1
v -0.5 -1.5 0
v -0.5 -1.5 1
v 0.5 -1.5 1
v 0.5 -0.5 1
v 0.5 0.5 -3
v 0.5 -0.5 2
v 0.5 0.5 2
v 0.5 0.5 1
v -0.5 -0.5 2
v -0.5 0.5 2
v -0.5 -0.5 3
v 0.5 -0.5 3
v 0.5 0.5 3
v -0.5 0.5 3
v -0.5 1.5 -3
v -1.5 1.5 -3
v -1.5 1.5 -2
v -0.5 1.5 -2
v -0.5 1.5 -1
v -1.5 1.5 -1
v 0.5 1.5 -3
v 0.5 0.5 -1
v 0.5 0.5 0
v 0.5 1.5 0
v 0.5 1.5 -1
v -0.5 1.5 0
v 0.5 1.5 1
v -0.5 1.5 1
v 0.5 2.5 -3
v -0.5 2.5 -3
v 0.5 1.5 -2
v 0.5 2.5 -2
v -0.5 2.5 -2
v 0.5 2.5 -1
v -0.5 2.5 -1
v 1.5 -1.5 -3
v 1.5 -0.5 -3
v 1.5 -1.5 -2
v 1.5 -0.5 -2
v 1.5 -1.5 -1
v 1.5 -0.5 -1
v 1.5 0.5 -3
v 1.5 -0.5 0
v 1.5 0.5 0
v 1.5 0.5 -1
v 1.5 -0.5 1
v 1.5 0.5 1
v 2.5 -0.5 -3
v 2.5 0.5 -3
v 2.5 -0.5 -2
v 2.5 0.5 -2
v 1.5 0.5 -2
v 2.5 -0.5 -1
v 2.5 0.5 -1
v 1.5 1.5 -3
v 1.5 1.5 -2
v 1.5 1.5 -1

vt 0.0625 0
vt 0.0703125 1

vn 0 0 -1
vn -1 0 0
vn 0 1 0
vn 0 -1 0
vn 0 0 1
vn 1 0 0

g Arrow
usemtl DefaultColorPalette
f 3/2/1 2/1/1 1/1/1
f 3/2/1 1/1/1 4/2/1
f 4/2/2 1/1/2 5/1/2
f 6/2/2 4/2/2 5/1/2
f 4/1/3 7/2/3 3/1/3
f 4/1/3 6/2/3 7/2/3
f 1/1/4 2/1/4 8/2/4
f 1/1/4 8/2/4 5/2/4
f 11/2/5 9/1/5 10/1/5
f 11/2/5 12/2/5 9/1/5
f 6/2/2 5/1/2 9/1/2
f 12/2/2 6/2/2 9/1/2
f 6/1/3 11/2/3 7/1/3
f 6/1/3 12/2/3 11/2/3
f 5/1/4 8/1/4 10/2/4
f 5/1/4 10/2/4 9/2/4
f 15/2/1 14/1/1 13/1/1
f 15/2/1 13/1/1 2/2/1
f 2/2/2 13/1/2 16/1/2
f 8/2/2 2/2/2 16/1/2
f 13/1/4 14/1/4 17/2/4
f 13/1/4 17/2/4 16/2/4
f 20/2/5 18/1/5 19/1/5
f 20/2/5 10/2/5 18/1/5
f 8/2/2 16/1/2 18/1/2
f 10/2/2 8/2/2 18/1/2
f 16/1/4 17/1/4 19/2/4
f 16/1/4 19/2/4 18/2/4
f 21/2/1 15/1/1 2/1/1
f 21/2/1 2/1/1 3/2/1
f 11/2/2 10/1/2 22/1/2
f 23/2/2 11/2/2 22/1/2
f 11/1/3 25/2/3 24/1/3
f 11/1/3 23/2/3 25/2/3
f 10/1/4 20/1/4 26/2/4
f 10/1/4 26/2/4 22/2/4
f 29/2/5 27/1/5 28/1/5
f 29/2/5 30/2/5 27/1/5
f 23/2/2 22/1/2 27/1/2
f 30/2/2 23/2/2 27/1/2
f 23/1/3 29/2/3 25/1/3
f 23/1/3 30/2/3 29/2/3
f 22/1/4 26/1/4 28/2/4
f 22/1/4 28/2/4 27/2/4
f 33/2/1 32/1/1 31/1/1
f 33/2/1 31/1/1 14/2/1
f 33/2/6 34/1/6 32/1/6
f 35/2/6 34/1/6 33/2/6
f 14/2/2 31/1/2 36/1/2
f 17/2/2 14/2/2 36/1/2
f 31/1/4 32/1/4 34/2/4
f 31/1/4 34/2/4 36/2/4
f 39/2/5 37/1/5 38/1/5
f 39/2/5 19/2/5 37/1/5
f 35/2/6 38/1/6 34/1/6
f 39/2/6 38/1/6 35/2/6
f 17/2/2 36/1/2 37/1/2
f 19/2/2 17/2/2 37/1/2
f 36/1/4 34/1/4 38/2/4
f 36/1/4 38/2/4 37/2/4
f 40/2/1 33/1/1 14/1/1
f 40/2/1 14/1/1 15/2/1
f 43/2/6 41/1/6 39/1/6
f 42/2/6 41/1/6 43/2/6
f 20/2/2 19/1/2 44/1/2
f 26/2/2 20/2/2 44/1/2
f 19/1/4 39/1/4 41/2/4
f 19/1/4 41/2/4 44/2/4
f 47/2/5 45/1/5 46/1/5
f 47/2/5 28/2/5 45/1/5
f 42/2/6 46/1/6 41/1/6
f 47/2/6 46/1/6 42/2/6
f 26/2/2 44/1/2 45/1/2
f 28/2/2 26/2/2 45/1/2
f 44/1/4 41/1/4 46/2/4
f 44/1/4 46/2/4 45/2/4
f 48/2/1 40/1/1 15/1/1
f 48/2/1 15/1/1 21/2/1
f 51/2/6 49/1/6 47/1/6
f 50/2/6 49/1/6 51/2/6
f 29/2/2 28/1/2 52/1/2
f 53/2/2 29/2/2 52/1/2
f 29/1/3 50/2/3 51/1/3
f 29/1/3 53/2/3 50/2/3
f 28/1/4 47/1/4 49/2/4
f 28/1/4 49/2/4 52/2/4
f 56/2/5 54/1/5 55/1/5
f 56/2/5 57/2/5 54/1/5
f 50/2/6 55/1/6 49/1/6
f 56/2/6 55/1/6 50/2/6
f 53/2/2 52/1/2 54/1/2
f 57/2/2 53/2/2 54/1/2
f 53/1/3 56/2/3 50/1/3
f 53/1/3 57/2/3 56/2/3
f 52/1/4 49/1/4 55/2/4
f 52/1/4 55/2/4 54/2/4
f 58/2/1 21/1/1 3/1/1
f 58/2/1 3/1/1 59/2/1
f 59/2/2 3/1/2 7/1/2
f 60/2/2 59/2/2 7/1/2
f 59/1/3 61/2/3 58/1/3
f 59/1/3 60/2/3 61/2/3
f 62/2/5 11/1/5 24/1/5
f 62/2/5 63/2/5 11/1/5
f 60/2/2 7/1/2 11/1/2
f 63/2/2 60/2/2 11/1/2
f 60/1/3 62/2/3 61/1/3
f 60/1/3 63/2/3 62/2/3
f 64/2/1 48/1/1 21/1/1
f 64/2/1 21/1/1 58/2/1
f 68/2/6 66/1/6 65/1/6
f 67/2/6 66/1/6 68/2/6
f 62/2/2 24/1/2 25/1/2
f 69/2/2 62/2/2 25/1/2
f 62/1/3 67/2/3 68/1/3
f 62/1/3 69/2/3 67/2/3
f 70/2/5 29/1/5 51/1/5
f 70/2/5 71/2/5 29/1/5
f 67/2/6 51/1/6 66/1/6
f 70/2/6 51/1/6 67/2/6
f 69/2/2 25/1/2 29/1/2
f 71/2/2 69/2/2 29/1/2
f 69/1/3 70/2/3 67/1/3
f 69/1/3 71/2/3 70/2/3
f 72/2/1 64/1/1 58/1/1
f 72/2/1 58/1/1 73/2/1
f 72/2/6 74/1/6 64/1/6
f 75/2/6 74/1/6 72/2/6
f 73/2/2 58/1/2 61/1/2
f 76/2/2 73/2/2 61/1/2
f 73/1/3 75/2/3 72/1/3
f 73/1/3 76/2/3 75/2/3
f 77/2/5 62/1/5 68/1/5
f 77/2/5 78/2/5 62/1/5
f 75/2/6 68/1/6 74/1/6
f 77/2/6 68/1/6 75/2/6
f 76/2/2 61/1/2 62/1/2
f 78/2/2 76/2/2 62/1/2
f 76/1/3 77/2/3 75/1/3
f 76/1/3 78/2/3 77/2/3
f 80/2/1 79/1/1 33/1/1
f 80/2/1 33/1/1 40/2/1
f 80/2/6 81/1/6 79/1/6
f 82/2/6 81/1/6 80/2/6
f 33/1/4 79/1/4 81/2/4
f 33/1/4 81/2/4 35/2/4
f 84/2/5 39/1/5 83/1/5
f 84/2/5 43/2/5 39/1/5
f 82/2/6 83/1/6 81/1/6
f 84/2/6 83/1/6 82/2/6
f 35/1/4 81/1/4 83/2/4
f 35/1/4 83/2/4 39/2/4
f 85/2/1 80/1/1 40/1/1
f 85/2/1 40/1/1 48/2/1
f 88/2/6 86/1/6 84/1/6
f 87/2/6 86/1/6 88/2/6
f 65/1/3 87/2/3 88/1/3
f 65/1/3 66/2/3 87/2/3
f 43/1/4 84/1/4 86/2/4
f 43/1/4 86/2/4 42/2/4
f 90/2/5 47/1/5 89/1/5
f 90/2/5 51/2/5 47/1/5
f 87/2/6 89/1/6 86/1/6
f 90/2/6 89/1/6 87/2/6
f 66/1/3 90/2/3 87/1/3
f 66/1/3 51/2/3 90/2/3
f 42/1/4 86/1/4 89/2/4
f 42/1/4 89/2/4 47/2/4
f 92/2/1 91/1/1 80/1/1
f 92/2/1 80/1/1 85/2/1
f 92/2/6 93/1/6 91/1/6
f 94/2/6 93/1/6 92/2/6
f 85/1/3 94/2/3 92/1/3
f 85/1/3 95/2/3 94/2/3
f 80/1/4 91/1/4 93/2/4
f 80/1/4 93/2/4 82/2/4
f 97/2/5 84/1/5 96/1/5
f 97/2/5 88/2/5 84/1/5
f 94/2/6 96/1/6 93/1/6
f 97/2/6 96/1/6 94/2/6
f 95/1/3 97/2/3 94/1/3
f 95/1/3 88/2/3 97/2/3
f 82/1/4 93/1/4 96/2/4
f 82/1/4 96/2/4 84/2/4
f 98/2/1 85/1/1 48/1/1
f 98/2/1 48/1/1 64/2/1
f 98/2/6 95/1/6 85/1/6
f 99/2/6 95/1/6 98/2/6
f 64/1/3 99/2/3 98/1/3
f 64/1/3 74/2/3 99/2/3
f 100/2/5 65/1/5 88/1/5
f 100/2/5 68/2/5 65/1/5
f 99/2/6 88/1/6 95/1/6
f 100/2/6 88/1/6 99/2/6
f 74/1/3 100/2/3 99/1/3
f 74/1/3 68/2/3 100/2/3
