mtllib ./Ring.mtl
o Ring

g Ring

v -6.5 -3.5 0.5
v -5.5 -3.5 0.5
v -5.5 -2.5 0.5
v -6.5 -2.5 0.5
v -6.5 -3.5 -0.5
v -5.5 -3.5 -0.5
v -5.5 -2.5 -0.5
v -6.5 -2.5 -0.5
v -5.5 -1.5 0.5
v -6.5 -1.5 0.5
v -5.5 -1.5 -0.5
v -6.5 -1.5 -0.5
v -5.5 -0.5 0.5
v -6.5 -0.5 0.5
v -5.5 -0.5 -0.5
v -6.5 -0.5 -0.5
v -5.5 0.5 0.5
v -6.5 0.5 0.5
v -5.5 0.5 -0.5
v -6.5 0.5 -0.5
v -5.5 -4.5 0.5
v -4.5 -4.5 0.5
v -4.5 -3.5 0.5
v -5.5 -4.5 -0.5
v -4.5 -4.5 -0.5
v -4.5 -3.5 -0.5
v -4.5 -2.5 0.5
v -4.5 -2.5 -0.5
v -4.5 -5.5 0.5
v -3.5 -5.5 0.5
v -3.5 -4.5 0.5
v -4.5 -5.5 -0.5
v -3.5 -5.5 -0.5
v -3.5 -4.5 -0.5
v -3.5 -3.5 0.5
v -3.5 -3.5 -0.5
v -3.5 -6.5 0.5
v -2.5 -6.5 0.5
v -2.5 -5.5 0.5
v -3.5 -6.5 -0.5
v -2.5 -6.5 -0.5
v -2.5 -5.5 -0.5
v -2.5 -4.5 0.5
v -2.5 -4.5 -0.5
v -1.5 -6.5 0.5
v -1.5 -5.5 0.5
v -1.5 -6.5 -0.5
v -1.5 -5.5 -0.5
v -5.5 1.5 0.5
v -6.5 1.5 0.5
v -5.5 1.5 -0.5
v -6.5 1.5 -0.5
v -5.5 2.5 0.5
v -6.5 2.5 0.5
v -5.5 2.5 -0.5
v -6.5 2.5 -0.5
v -5.5 3.5 0.5
v -6.5 3.5 0.5
v -5.5 3.5 -0.5
v -6.5 3.5 -0.5
v -4.5 2.5 0.5
v -4.5 3.5 0.5
v -4.5 2.5 -0.5
v -4.5 3.5 -0.5
v -4.5 4.5 0.5
v -5.5 4.5 0.5
v -4.5 4.5 -0.5
v -5.5 4.5 -0.5
v -3.5 3.5 0.5
v -3.5 4.5 0.5
v -3.5 3.5 -0.5
v -3.5 4.5 -0.5
v -3.5 5.5 0.5
v -4.5 5.5 0.5
v -3.5 5.5 -0.5
v -4.5 5.5 -0.5
v -2.5 4.5 0.5
v -2.5 5.5 0.5
v -2.5 4.5 -0.5
v -2.5 5.5 -0.5
v -2.5 6.5 0.5
v -3.5 6.5 0.5
v -2.5 6.5 -0.5
v -3.5 6.5 -0.5
v -1.5 5.5 0.5
v -1.5 6.5 0.5
v -1.5 5.5 -0.5
v -1.5 6.5 -0.5
v -0.5 5.5 0.5
v -0.5 6.5 0.5
v -0.5 5.5 -0.5
v -0.5 6.5 -0.5
v 0.5 5.5 0.5
v 0.5 6.5 0.5
v 0.5 5.5 -0.5
v 0.5 6.5 -0.5
v 1.5 5.5 0.5
v 1.5 6.5 0.5
v 1.5 5.5 -0.5
v 1.5 6.5 -0.5
v 2.5 5.5 0.5
v 2.5 6.5 0.5
v 2.5 5.5 -0.5
v 2.5 6.5 -0.5
v 2.5 4.5 0.5
v 3.5 4.5 0.5
v 3.5 5.5 0.5
v 2.5 4.5 -0.5
v 3.5 4.5 -0.5
v 3.5 5.5 -0.5
v 3.5 6.5 0.5
v 3.5 6.5 -0.5
v 3.5 3.5 0.5
v 4.5 3.5 0.5
v 4.5 4.5 0.5
v 3.5 3.5 -0.5
v 4.5 3.5 -0.5
v 4.5 4.5 -0.5
v 4.5 5.5 0.5
v 4.5 5.5 -0.5
v 4.5 2.5 0.5
v 5.5 2.5 0.5
v 5.5 3.5 0.5
v 4.5 2.5 -0.5
v 5.5 2.5 -0.5
v 5.5 3.5 -0.5
v 5.5 4.5 0.5
v 5.5 4.5 -0.5
v 5.5 0.5 0.5
v 6.5 0.5 0.5
v 6.5 1.5 0.5
v 5.5 1.5 0.5
v 5.5 0.5 -0.5
v 6.5 0.5 -0.5
v 6.5 1.5 -0.5
v 5.5 1.5 -0.5
v 6.5 2.5 0.5
v 6.5 2.5 -0.5
v 6.5 3.5 0.5
v 6.5 3.5 -0.5
v -0.5 -6.5 0.5
v -0.5 -5.5 0.5
v -0.5 -6.5 -0.5
v -0.5 -5.5 -0.5
v 0.5 -6.5 0.5
v 0.5 -5.5 0.5
v 0.5 -6.5 -0.5
v 0.5 -5.5 -0.5
v 1.5 -6.5 0.5
v 1.5 -5.5 0.5
v 1.5 -6.5 -0.5
v 1.5 -5.5 -0.5
v 2.5 -6.5 0.5
v 2.5 -5.5 0.5
v 2.5 -6.5 -0.5
v 2.5 -5.5 -0.5
v 3.5 -6.5 0.5
v 3.5 -5.5 0.5
v 3.5 -6.5 -0.5
v 3.5 -5.5 -0.5
v 3.5 -4.5 0.5
v 2.5 -4.5 0.5
v 3.5 -4.5 -0.5
v 2.5 -4.5 -0.5
v 4.5 -5.5 0.5
v 4.5 -4.5 0.5
v 4.5 -5.5 -0.5
v 4.5 -4.5 -0.5
v 4.5 -3.5 0.5
v 3.5 -3.5 0.5
v 4.5 -3.5 -0.5
v 3.5 -3.5 -0.5
v 5.5 -4.5 0.5
v 5.5 -3.5 0.5
v 5.5 -4.5 -0.5
v 5.5 -3.5 -0.5
v 5.5 -2.5 0.5
v 4.5 -2.5 0.5
v 5.5 -2.5 -0.5
v 4.5 -2.5 -0.5
v 6.5 -3.5 0.5
v 6.5 -2.5 0.5
v 6.5 -3.5 -0.5
v 6.5 -2.5 -0.5
v 6.5 -1.5 0.5
v 5.5 -1.5 0.5
v 6.5 -1.5 -0.5
v 5.5 -1.5 -0.5
v 6.5 -0.5 0.5
v 5.5 -0.5 0.5
v 6.5 -0.5 -0.5
v 5.5 -0.5 -0.5

vt 0.0625 0
vt 0.0703125 1

vn 0 0 1
vn 0 0 -1
vn -1 0 0
vn 0 -1 0
vn 1 0 0
vn 0 1 0

g Ring
usemtl DefaultColorPalette
f 3/2/1 1/1/1 2/1/1
f 3/2/1 4/2/1 1/1/1
f 7/2/2 6/1/2 5/1/2
f 7/2/2 5/1/2 8/2/2
f 8/2/3 5/1/3 1/1/3
f 4/2/3 8/2/3 1/1/3
f 5/1/4 6/1/4 2/2/4
f 5/1/4 2/2/4 1/2/4
f 9/2/1 4/1/1 3/1/1
f 9/2/1 10/2/1 4/1/1
f 11/2/2 7/1/2 8/1/2
f 11/2/2 8/1/2 12/2/2
f 11/2/5 3/1/5 7/1/5
f 9/2/5 3/1/5 11/2/5
f 12/2/3 8/1/3 4/1/3
f 10/2/3 12/2/3 4/1/3
f 13/2/1 10/1/1 9/1/1
f 13/2/1 14/2/1 10/1/1
f 15/2/2 11/1/2 12/1/2
f 15/2/2 12/1/2 16/2/2
f 15/2/5 9/1/5 11/1/5
f 13/2/5 9/1/5 15/2/5
f 16/2/3 12/1/3 10/1/3
f 14/2/3 16/2/3 10/1/3
f 17/2/1 14/1/1 13/1/1
f 17/2/1 18/2/1 14/1/1
f 19/2/2 15/1/2 16/1/2
f 19/2/2 16/1/2 20/2/2
f 19/2/5 13/1/5 15/1/5
f 17/2/5 13/1/5 19/2/5
f 20/2/3 16/1/3 14/1/3
f 18/2/3 20/2/3 14/1/3
f 23/2/1 21/1/1 22/1/1
f 23/2/1 2/2/1 21/1/1
f 26/2/2 25/1/2 24/1/2
f 26/2/2 24/1/2 6/2/2
f 6/2/3 24/1/3 21/1/3
f 2/2/3 6/2/3 21/1/3
f 24/1/4 25/1/4 22/2/4
f 24/1/4 22/2/4 21/2/4
f 27/2/1 2/1/1 23/1/1
f 27/2/1 3/2/1 2/1/1
f 28/2/2 26/1/2 6/1/2
f 28/2/2 6/1/2 7/2/2
f 28/2/5 23/1/5 26/1/5
f 27/2/5 23/1/5 28/2/5
f 7/1/6 27/2/6 28/1/6
f 7/1/6 3/2/6 27/2/6
f 31/2/1 29/1/1 30/1/1
f 31/2/1 22/2/1 29/1/1
f 34/2/2 33/1/2 32/1/2
f 34/2/2 32/1/2 25/2/2
f 25/2/3 32/1/3 29/1/3
f 22/2/3 25/2/3 29/1/3
f 32/1/4 33/1/4 30/2/4
f 32/1/4 30/2/4 29/2/4
f 35/2/1 22/1/1 31/1/1
f 35/2/1 23/2/1 22/1/1
f 36/2/2 34/1/2 25/1/2
f 36/2/2 25/1/2 26/2/2
f 36/2/5 31/1/5 34/1/5
f 35/2/5 31/1/5 36/2/5
f 26/1/6 35/2/6 36/1/6
f 26/1/6 23/2/6 35/2/6
f 39/2/1 37/1/1 38/1/1
f 39/2/1 30/2/1 37/1/1
f 42/2/2 41/1/2 40/1/2
f 42/2/2 40/1/2 33/2/2
f 33/2/3 40/1/3 37/1/3
f 30/2/3 33/2/3 37/1/3
f 40/1/4 41/1/4 38/2/4
f 40/1/4 38/2/4 37/2/4
f 43/2/1 30/1/1 39/1/1
f 43/2/1 31/2/1 30/1/1
f 44/2/2 42/1/2 33/1/2
f 44/2/2 33/1/2 34/2/2
f 44/2/5 39/1/5 42/1/5
f 43/2/5 39/1/5 44/2/5
f 34/1/6 43/2/6 44/1/6
f 34/1/6 31/2/6 43/2/6
f 46/2/1 38/1/1 45/1/1
f 46/2/1 39/2/1 38/1/1
f 48/2/2 47/1/2 41/1/2
f 48/2/2 41/1/2 42/2/2
f 42/1/6 46/2/6 48/1/6
f 42/1/6 39/2/6 46/2/6
f 41/1/4 47/1/4 45/2/4
f 41/1/4 45/2/4 38/2/4
f 49/2/1 18/1/1 17/1/1
f 49/2/1 50/2/1 18/1/1
f 51/2/2 19/1/2 20/1/2
f 51/2/2 20/1/2 52/2/2
f 51/2/5 17/1/5 19/1/5
f 49/2/5 17/1/5 51/2/5
f 52/2/3 20/1/3 18/1/3
f 50/2/3 52/2/3 18/1/3
f 53/2/1 50/1/1 49/1/1
f 53/2/1 54/2/1 50/1/1
f 55/2/2 51/1/2 52/1/2
f 55/2/2 52/1/2 56/2/2
f 55/2/5 49/1/5 51/1/5
f 53/2/5 49/1/5 55/2/5
f 56/2/3 52/1/3 50/1/3
f 54/2/3 56/2/3 50/1/3
f 57/2/1 54/1/1 53/1/1
f 57/2/1 58/2/1 54/1/1
f 59/2/2 55/1/2 56/1/2
f 59/2/2 56/1/2 60/2/2
f 60/2/3 56/1/3 54/1/3
f 58/2/3 60/2/3 54/1/3
f 60/1/6 57/2/6 59/1/6
f 60/1/6 58/2/6 57/2/6
f 62/2/1 53/1/1 61/1/1
f 62/2/1 57/2/1 53/1/1
f 64/2/2 63/1/2 55/1/2
f 64/2/2 55/1/2 59/2/2
f 64/2/5 61/1/5 63/1/5
f 62/2/5 61/1/5 64/2/5
f 55/1/4 63/1/4 61/2/4
f 55/1/4 61/2/4 53/2/4
f 65/2/1 57/1/1 62/1/1
f 65/2/1 66/2/1 57/1/1
f 67/2/2 64/1/2 59/1/2
f 67/2/2 59/1/2 68/2/2
f 68/2/3 59/1/3 57/1/3
f 66/2/3 68/2/3 57/1/3
f 68/1/6 65/2/6 67/1/6
f 68/1/6 66/2/6 65/2/6
f 70/2/1 62/1/1 69/1/1
f 70/2/1 65/2/1 62/1/1
f 72/2/2 71/1/2 64/1/2
f 72/2/2 64/1/2 67/2/2
f 72/2/5 69/1/5 71/1/5
f 70/2/5 69/1/5 72/2/5
f 64/1/4 71/1/4 69/2/4
f 64/1/4 69/2/4 62/2/4
f 73/2/1 65/1/1 70/1/1
f 73/2/1 74/2/1 65/1/1
f 75/2/2 72/1/2 67/1/2
f 75/2/2 67/1/2 76/2/2
f 76/2/3 67/1/3 65/1/3
f 74/2/3 76/2/3 65/1/3
f 76/1/6 73/2/6 75/1/6
f 76/1/6 74/2/6 73/2/6
f 78/2/1 70/1/1 77/1/1
f 78/2/1 73/2/1 70/1/1
f 80/2/2 79/1/2 72/1/2
f 80/2/2 72/1/2 75/2/2
f 80/2/5 77/1/5 79/1/5
f 78/2/5 77/1/5 80/2/5
f 72/1/4 79/1/4 77/2/4
f 72/1/4 77/2/4 70/2/4
f 81/2/1 73/1/1 78/1/1
f 81/2/1 82/2/1 73/1/1
f 83/2/2 80/1/2 75/1/2
f 83/2/2 75/1/2 84/2/2
f 84/2/3 75/1/3 73/1/3
f 82/2/3 84/2/3 73/1/3
f 84/1/6 81/2/6 83/1/6
f 84/1/6 82/2/6 81/2/6
f 86/2/1 78/1/1 85/1/1
f 86/2/1 81/2/1 78/1/1
f 88/2/2 87/1/2 80/1/2
f 88/2/2 80/1/2 83/2/2
f 83/1/6 86/2/6 88/1/6
f 83/1/6 81/2/6 86/2/6
f 80/1/4 87/1/4 85/2/4
f 80/1/4 85/2/4 78/2/4
f 90/2/1 85/1/1 89/1/1
f 90/2/1 86/2/1 85/1/1
f 92/2/2 91/1/2 87/1/2
f 92/2/2 87/1/2 88/2/2
f 88/1/6 90/2/6 92/1/6
f 88/1/6 86/2/6 90/2/6
f 87/1/4 91/1/4 89/2/4
f 87/1/4 89/2/4 85/2/4
f 94/2/1 89/1/1 93/1/1
f 94/2/1 90/2/1 89/1/1
f 96/2/2 95/1/2 91/1/2
f 96/2/2 91/1/2 92/2/2
f 92/1/6 94/2/6 96/1/6
f 92/1/6 90/2/6 94/2/6
f 91/1/4 95/1/4 93/2/4
f 91/1/4 93/2/4 89/2/4
f 98/2/1 93/1/1 97/1/1
f 98/2/1 94/2/1 93/1/1
f 100/2/2 99/1/2 95/1/2
f 100/2/2 95/1/2 96/2/2
f 96/1/6 98/2/6 100/1/6
f 96/1/6 94/2/6 98/2/6
f 95/1/4 99/1/4 97/2/4
f 95/1/4 97/2/4 93/2/4
f 102/2/1 97/1/1 101/1/1
f 102/2/1 98/2/1 97/1/1
f 104/2/2 103/1/2 99/1/2
f 104/2/2 99/1/2 100/2/2
f 100/1/6 102/2/6 104/1/6
f 100/1/6 98/2/6 102/2/6
f 99/1/4 103/1/4 101/2/4
f 99/1/4 101/2/4 97/2/4
f 107/2/1 105/1/1 106/1/1
f 107/2/1 101/2/1 105/1/1
f 110/2/2 109/1/2 108/1/2
f 110/2/2 108/1/2 103/2/2
f 103/2/3 108/1/3 105/1/3
f 101/2/3 103/2/3 105/1/3
f 108/1/4 109/1/4 106/2/4
f 108/1/4 106/2/4 105/2/4
f 111/2/1 101/1/1 107/1/1
f 111/2/1 102/2/1 101/1/1
f 112/2/2 110/1/2 103/1/2
f 112/2/2 103/1/2 104/2/2
f 112/2/5 107/1/5 110/1/5
f 111/2/5 107/1/5 112/2/5
f 104/1/6 111/2/6 112/1/6
f 104/1/6 102/2/6 111/2/6
f 115/2/1 113/1/1 114/1/1
f 115/2/1 106/2/1 113/1/1
f 118/2/2 117/1/2 116/1/2
f 118/2/2 116/1/2 109/2/2
f 109/2/3 116/1/3 113/1/3
f 106/2/3 109/2/3 113/1/3
f 116/1/4 117/1/4 114/2/4
f 116/1/4 114/2/4 113/2/4
f 119/2/1 106/1/1 115/1/1
f 119/2/1 107/2/1 106/1/1
f 120/2/2 118/1/2 109/1/2
f 120/2/2 109/1/2 110/2/2
f 120/2/5 115/1/5 118/1/5
f 119/2/5 115/1/5 120/2/5
f 110/1/6 119/2/6 120/1/6
f 110/1/6 107/2/6 119/2/6
f 123/2/1 121/1/1 122/1/1
f 123/2/1 114/2/1 121/1/1
f 126/2/2 125/1/2 124/1/2
f 126/2/2 124/1/2 117/2/2
f 117/2/3 124/1/3 121/1/3
f 114/2/3 117/2/3 121/1/3
f 124/1/4 125/1/4 122/2/4
f 124/1/4 122/2/4 121/2/4
f 127/2/1 114/1/1 123/1/1
f 127/2/1 115/2/1 114/1/1
f 128/2/2 126/1/2 117/1/2
f 128/2/2 117/1/2 118/2/2
f 128/2/5 123/1/5 126/1/5
f 127/2/5 123/1/5 128/2/5
f 118/1/6 127/2/6 128/1/6
f 118/1/6 115/2/6 127/2/6
f 131/2/1 129/1/1 130/1/1
f 131/2/1 132/2/1 129/1/1
f 135/2/2 134/1/2 133/1/2
f 135/2/2 133/1/2 136/2/2
f 135/2/5 130/1/5 134/1/5
f 131/2/5 130/1/5 135/2/5
f 136/2/3 133/1/3 129/1/3
f 132/2/3 136/2/3 129/1/3
f 137/2/1 132/1/1 131/1/1
f 137/2/1 122/2/1 132/1/1
f 138/2/2 135/1/2 136/1/2
f 138/2/2 136/1/2 125/2/2
f 138/2/5 131/1/5 135/1/5
f 137/2/5 131/1/5 138/2/5
f 125/2/3 136/1/3 132/1/3
f 122/2/3 125/2/3 132/1/3
f 139/2/1 122/1/1 137/1/1
f 139/2/1 123/2/1 122/1/1
f 140/2/2 138/1/2 125/1/2
f 140/2/2 125/1/2 126/2/2
f 140/2/5 137/1/5 138/1/5
f 139/2/5 137/1/5 140/2/5
f 126/1/6 139/2/6 140/1/6
f 126/1/6 123/2/6 139/2/6
f 142/2/1 45/1/1 141/1/1
f 142/2/1 46/2/1 45/1/1
f 144/2/2 143/1/2 47/1/2
f 144/2/2 47/1/2 48/2/2
f 48/1/6 142/2/6 144/1/6
f 48/1/6 46/2/6 142/2/6
f 47/1/4 143/1/4 141/2/4
f 47/1/4 141/2/4 45/2/4
f 146/2/1 141/1/1 145/1/1
f 146/2/1 142/2/1 141/1/1
f 148/2/2 147/1/2 143/1/2
f 148/2/2 143/1/2 144/2/2
f 144/1/6 146/2/6 148/1/6
f 144/1/6 142/2/6 146/2/6
f 143/1/4 147/1/4 145/2/4
f 143/1/4 145/2/4 141/2/4
f 150/2/1 145/1/1 149/1/1
f 150/2/1 146/2/1 145/1/1
f 152/2/2 151/1/2 147/1/2
f 152/2/2 147/1/2 148/2/2
f 148/1/6 150/2/6 152/1/6
f 148/1/6 146/2/6 150/2/6
f 147/1/4 151/1/4 149/2/4
f 147/1/4 149/2/4 145/2/4
f 154/2/1 149/1/1 153/1/1
f 154/2/1 150/2/1 149/1/1
f 156/2/2 155/1/2 151/1/2
f 156/2/2 151/1/2 152/2/2
f 152/1/6 154/2/6 156/1/6
f 152/1/6 150/2/6 154/2/6
f 151/1/4 155/1/4 153/2/4
f 151/1/4 153/2/4 149/2/4
f 158/2/1 153/1/1 157/1/1
f 158/2/1 154/2/1 153/1/1
f 160/2/2 159/1/2 155/1/2
f 160/2/2 155/1/2 156/2/2
f 160/2/5 157/1/5 159/1/5
f 158/2/5 157/1/5 160/2/5
f 155/1/4 159/1/4 157/2/4
f 155/1/4 157/2/4 153/2/4
f 161/2/1 154/1/1 158/1/1
f 161/2/1 162/2/1 154/1/1
f 163/2/2 160/1/2 156/1/2
f 163/2/2 156/1/2 164/2/2
f 164/2/3 156/1/3 154/1/3
f 162/2/3 164/2/3 154/1/3
f 164/1/6 161/2/6 163/1/6
f 164/1/6 162/2/6 161/2/6
f 166/2/1 158/1/1 165/1/1
f 166/2/1 161/2/1 158/1/1
f 168/2/2 167/1/2 160/1/2
f 168/2/2 160/1/2 163/2/2
f 168/2/5 165/1/5 167/1/5
f 166/2/5 165/1/5 168/2/5
f 160/1/4 167/1/4 165/2/4
f 160/1/4 165/2/4 158/2/4
f 169/2/1 161/1/1 166/1/1
f 169/2/1 170/2/1 161/1/1
f 171/2/2 168/1/2 163/1/2
f 171/2/2 163/1/2 172/2/2
f 172/2/3 163/1/3 161/1/3
f 170/2/3 172/2/3 161/1/3
f 172/1/6 169/2/6 171/1/6
f 172/1/6 170/2/6 169/2/6
f 174/2/1 166/1/1 173/1/1
f 174/2/1 169/2/1 166/1/1
f 176/2/2 175/1/2 168/1/2
f 176/2/2 168/1/2 171/2/2
f 176/2/5 173/1/5 175/1/5
f 174/2/5 173/1/5 176/2/5
f 168/1/4 175/1/4 173/2/4
f 168/1/4 173/2/4 166/2/4
f 177/2/1 169/1/1 174/1/1
f 177/2/1 178/2/1 169/1/1
f 179/2/2 176/1/2 171/1/2
f 179/2/2 171/1/2 180/2/2
f 180/2/3 171/1/3 169/1/3
f 178/2/3 180/2/3 169/1/3
f 180/1/6 177/2/6 179/1/6
f 180/1/6 178/2/6 177/2/6
f 182/2/1 174/1/1 181/1/1
f 182/2/1 177/2/1 174/1/1
f 184/2/2 183/1/2 176/1/2
f 184/2/2 176/1/2 179/2/2
f 184/2/5 181/1/5 183/1/5
f 182/2/5 181/1/5 184/2/5
f 176/1/4 183/1/4 181/2/4
f 176/1/4 181/2/4 174/2/4
f 185/2/1 177/1/1 182/1/1
f 185/2/1 186/2/1 177/1/1
f 187/2/2 184/1/2 179/1/2
f 187/2/2 179/1/2 188/2/2
f 187/2/5 182/1/5 184/1/5
f 185/2/5 182/1/5 187/2/5
f 188/2/3 179/1/3 177/1/3
f 186/2/3 188/2/3 177/1/3
f 189/2/1 186/1/1 185/1/1
f 189/2/1 190/2/1 186/1/1
f 191/2/2 187/1/2 188/1/2
f 191/2/2 188/1/2 192/2/2
f 191/2/5 185/1/5 187/1/5
f 189/2/5 185/1/5 191/2/5
f 192/2/3 188/1/3 186/1/3
f 190/2/3 192/2/3 186/1/3
f 130/2/1 190/1/1 189/1/1
f 130/2/1 129/2/1 190/1/1
f 134/2/2 191/1/2 192/1/2
f 134/2/2 192/1/2 133/2/2
f 134/2/5 189/1/5 191/1/5
f 130/2/5 189/1/5 134/2/5
f 133/2/3 192/1/3 190/1/3
f 129/2/3 133/2/3 190/1/3
