mtllib ./Scale Arrow.mtl
o ScaleArrow

g ScaleArrow

v 0.5 -0.5 2.5
v 0.5 -1.5 2.5
v -0.5 -1.5 2.5
v -0.5 -0.5 2.5
v 0.5 -1.5 3.5
v -0.5 -1.5 3.5
v 0.5 -1.5 4.5
v -0.5 -1.5 4.5
v 0.5 -0.5 5.5
v -0.5 -1.5 5.5
v 0.5 -1.5 5.5
v -0.5 -0.5 5.5
v 0.5 0.5 -5.5
v 0.5 -0.5 -5.5
v -0.5 -0.5 -5.5
v -0.5 0.5 -5.5
v 0.5 -0.5 -4.5
v 0.5 0.5 -4.5
v -0.5 -0.5 -4.5
v -0.5 0.5 -4.5
v 0.5 -0.5 -3.5
v 0.5 0.5 -3.5
v -0.5 -0.5 -3.5
v -0.5 0.5 -3.5
v 0.5 -0.5 -2.5
v 0.5 0.5 -2.5
v -0.5 -0.5 -2.5
v -0.5 0.5 -2.5
v 0.5 -0.5 -1.5
v 0.5 0.5 -1.5
v -0.5 -0.5 -1.5
v -0.5 0.5 -1.5
v 0.5 -0.5 -0.5
v 0.5 0.5 -0.5
v -0.5 -0.5 -0.5
v -0.5 0.5 -0.5
v 0.5 -0.5 0.5
v 0.5 0.5 0.5
v -0.5 -0.5 0.5
v -0.5 0.5 0.5
v 0.5 -0.5 1.5
v 0.5 0.5 1.5
v -0.5 -0.5 1.5
v -0.5 0.5 1.5
v 0.5 0.5 2.5
v -0.5 0.5 2.5
v 0.5 0.5 5.5
v -0.5 0.5 5.5
v 0.5 1.5 2.5
v -0.5 1.5 2.5
v 0.5 1.5 3.5
v -0.5 1.5 3.5
v 0.5 1.5 4.5
v -0.5 1.5 4.5
v 0.5 1.5 5.5
v -0.5 1.5 5.5
v 1.5 -0.5 2.5
v 1.5 -1.5 2.5
v 1.5 -1.5 3.5
v 1.5 -0.5 3.5
v 1.5 -1.5 4.5
v 1.5 -0.5 4.5
v 1.5 -0.5 5.5
v 1.5 -1.5 5.5
v 1.5 0.5 2.5
v 1.5 0.5 3.5
v 1.5 0.5 4.5
v 1.5 0.5 5.5
v 1.5 1.5 2.5
v 1.5 1.5 3.5
v 1.5 1.5 4.5
v 1.5 1.5 5.5
v -1.5 -1.5 2.5
v -1.5 -0.5 2.5
v -1.5 -1.5 3.5
v -1.5 -0.5 3.5
v -1.5 -1.5 4.5
v -1.5 -0.5 4.5
v -1.5 -1.5 5.5
v -1.5 -0.5 5.5
v -1.5 0.5 2.5
v -1.5 0.5 3.5
v -1.5 0.5 4.5
v -1.5 0.5 5.5
v -1.5 1.5 2.5
v -1.5 1.5 3.5
v -1.5 1.5 4.5
v -1.5 1.5 5.5

vt 0.0703125 1
vt 0.0625 0

vn 0 0 -1
vn 0 -1 0
vn 0 0 1
vn 1 0 0
vn -1 0 0
vn 0 1 0

g ScaleArrow
usemtl DefaultColorPalette
f 1/1/1 2/2/1 3/2/1
f 1/1/1 3/2/1 4/1/1
f 3/2/2 2/2/2 5/1/2
f 3/2/2 5/1/2 6/1/2
f 6/2/2 5/2/2 7/1/2
f 6/2/2 7/1/2 8/1/2
f 9/1/3 10/2/3 11/2/3
f 9/1/3 12/1/3 10/2/3
f 8/2/2 7/2/2 11/1/2
f 8/2/2 11/1/2 10/1/2
f 13/1/1 14/2/1 15/2/1
f 13/1/1 15/2/1 16/1/1
f 13/1/4 17/2/4 14/2/4
f 18/1/4 17/2/4 13/1/4
f 16/1/5 15/2/5 19/2/5
f 20/1/5 16/1/5 19/2/5
f 16/2/6 18/1/6 13/2/6
f 16/2/6 20/1/6 18/1/6
f 15/2/2 14/2/2 17/1/2
f 15/2/2 17/1/2 19/1/2
f 18/1/4 21/2/4 17/2/4
f 22/1/4 21/2/4 18/1/4
f 20/1/5 19/2/5 23/2/5
f 24/1/5 20/1/5 23/2/5
f 20/2/6 22/1/6 18/2/6
f 20/2/6 24/1/6 22/1/6
f 19/2/2 17/2/2 21/1/2
f 19/2/2 21/1/2 23/1/2
f 22/1/4 25/2/4 21/2/4
f 26/1/4 25/2/4 22/1/4
f 24/1/5 23/2/5 27/2/5
f 28/1/5 24/1/5 27/2/5
f 24/2/6 26/1/6 22/2/6
f 24/2/6 28/1/6 26/1/6
f 23/2/2 21/2/2 25/1/2
f 23/2/2 25/1/2 27/1/2
f 26/1/4 29/2/4 25/2/4
f 30/1/4 29/2/4 26/1/4
f 28/1/5 27/2/5 31/2/5
f 32/1/5 28/1/5 31/2/5
f 28/2/6 30/1/6 26/2/6
f 28/2/6 32/1/6 30/1/6
f 27/2/2 25/2/2 29/1/2
f 27/2/2 29/1/2 31/1/2
f 30/1/4 33/2/4 29/2/4
f 34/1/4 33/2/4 30/1/4
f 32/1/5 31/2/5 35/2/5
f 36/1/5 32/1/5 35/2/5
f 32/2/6 34/1/6 30/2/6
f 32/2/6 36/1/6 34/1/6
f 31/2/2 29/2/2 33/1/2
f 31/2/2 33/1/2 35/1/2
f 34/1/4 37/2/4 33/2/4
f 38/1/4 37/2/4 34/1/4
f 36/1/5 35/2/5 39/2/5
f 40/1/5 36/1/5 39/2/5
f 36/2/6 38/1/6 34/2/6
f 36/2/6 40/1/6 38/1/6
f 35/2/2 33/2/2 37/1/2
f 35/2/2 37/1/2 39/1/2
f 38/1/4 41/2/4 37/2/4
f 42/1/4 41/2/4 38/1/4
f 40/1/5 39/2/5 43/2/5
f 44/1/5 40/1/5 43/2/5
f 40/2/6 42/1/6 38/2/6
f 40/2/6 44/1/6 42/1/6
f 39/2/2 37/2/2 41/1/2
f 39/2/2 41/1/2 43/1/2
f 42/1/4 1/2/4 41/2/4
f 45/1/4 1/2/4 42/1/4
f 44/1/5 43/2/5 4/2/5
f 46/1/5 44/1/5 4/2/5
f 44/2/6 45/1/6 42/2/6
f 44/2/6 46/1/6 45/1/6
f 43/2/2 41/2/2 1/1/2
f 43/2/2 1/1/2 4/1/2
f 47/1/3 12/2/3 9/2/3
f 47/1/3 48/1/3 12/2/3
f 49/1/1 45/2/1 46/2/1
f 49/1/1 46/2/1 50/1/1
f 50/2/6 51/1/6 49/2/6
f 50/2/6 52/1/6 51/1/6
f 52/2/6 53/1/6 51/2/6
f 52/2/6 54/1/6 53/1/6
f 55/1/3 48/2/3 47/2/3
f 55/1/3 56/1/3 48/2/3
f 54/2/6 55/1/6 53/2/6
f 54/2/6 56/1/6 55/1/6
f 57/1/1 58/2/1 2/2/1
f 57/1/1 2/2/1 1/1/1
f 57/1/4 59/2/4 58/2/4
f 60/1/4 59/2/4 57/1/4
f 2/2/2 58/2/2 59/1/2
f 2/2/2 59/1/2 5/1/2
f 60/1/4 61/2/4 59/2/4
f 62/1/4 61/2/4 60/1/4
f 5/2/2 59/2/2 61/1/2
f 5/2/2 61/1/2 7/1/2
f 63/1/3 11/2/3 64/2/3
f 63/1/3 9/1/3 11/2/3
f 62/1/4 64/2/4 61/2/4
f 63/1/4 64/2/4 62/1/4
f 7/2/2 61/2/2 64/1/2
f 7/2/2 64/1/2 11/1/2
f 65/1/1 57/2/1 1/2/1
f 65/1/1 1/2/1 45/1/1
f 65/1/4 60/2/4 57/2/4
f 66/1/4 60/2/4 65/1/4
f 66/1/4 62/2/4 60/2/4
f 67/1/4 62/2/4 66/1/4
f 68/1/3 9/2/3 63/2/3
f 68/1/3 47/1/3 9/2/3
f 67/1/4 63/2/4 62/2/4
f 68/1/4 63/2/4 67/1/4
f 69/1/1 65/2/1 45/2/1
f 69/1/1 45/2/1 49/1/1
f 69/1/4 66/2/4 65/2/4
f 70/1/4 66/2/4 69/1/4
f 49/2/6 70/1/6 69/2/6
f 49/2/6 51/1/6 70/1/6
f 70/1/4 67/2/4 66/2/4
f 71/1/4 67/2/4 70/1/4
f 51/2/6 71/1/6 70/2/6
f 51/2/6 53/1/6 71/1/6
f 72/1/3 47/2/3 68/2/3
f 72/1/3 55/1/3 47/2/3
f 71/1/4 68/2/4 67/2/4
f 72/1/4 68/2/4 71/1/4
f 53/2/6 72/1/6 71/2/6
f 53/2/6 55/1/6 72/1/6
f 4/1/1 3/2/1 73/2/1
f 4/1/1 73/2/1 74/1/1
f 74/1/5 73/2/5 75/2/5
f 76/1/5 74/1/5 75/2/5
f 73/2/2 3/2/2 6/1/2
f 73/2/2 6/1/2 75/1/2
f 76/1/5 75/2/5 77/2/5
f 78/1/5 76/1/5 77/2/5
f 75/2/2 6/2/2 8/1/2
f 75/2/2 8/1/2 77/1/2
f 12/1/3 79/2/3 10/2/3
f 12/1/3 80/1/3 79/2/3
f 78/1/5 77/2/5 79/2/5
f 80/1/5 78/1/5 79/2/5
f 77/2/2 8/2/2 10/1/2
f 77/2/2 10/1/2 79/1/2
f 46/1/1 4/2/1 74/2/1
f 46/1/1 74/2/1 81/1/1
f 81/1/5 74/2/5 76/2/5
f 82/1/5 81/1/5 76/2/5
f 82/1/5 76/2/5 78/2/5
f 83/1/5 82/1/5 78/2/5
f 48/1/3 80/2/3 12/2/3
f 48/1/3 84/1/3 80/2/3
f 83/1/5 78/2/5 80/2/5
f 84/1/5 83/1/5 80/2/5
f 50/1/1 46/2/1 81/2/1
f 50/1/1 81/2/1 85/1/1
f 85/1/5 81/2/5 82/2/5
f 86/1/5 85/1/5 82/2/5
f 85/2/6 52/1/6 50/2/6
f 85/2/6 86/1/6 52/1/6
f 86/1/5 82/2/5 83/2/5
f 87/1/5 86/1/5 83/2/5
f 86/2/6 54/1/6 52/2/6
f 86/2/6 87/1/6 54/1/6
f 56/1/3 84/2/3 48/2/3
f 56/1/3 88/1/3 84/2/3
f 87/1/5 83/2/5 84/2/5
f 88/1/5 87/1/5 84/2/5
f 87/2/6 56/1/6 54/2/6
f 87/2/6 88/1/6 56/1/6
