o test

g test

v 0 0 1
v 1 0 1
v 1 1 1
v 0 1 1
v 0 0 0
v 1 0 0
v 1 1 0
v 0 1 0
v 0 0 0
v 0 0 1
v 0 1 1
v 0 1 0
v 0 0 0
v 1 0 0
v 1 0 1
v 0 0 1
v 0 1 1
v 1 1 1
v 1 2 1
v 0 2 1
v 0 1 0
v 1 1 0
v 1 2 0
v 0 2 0
v 0 1 0
v 0 1 1
v 0 2 1
v 0 2 0
v 0 2 1
v 1 2 1
v 1 3 1
v 0 3 1
v 0 2 0
v 1 2 0
v 1 3 0
v 0 3 0
v 0 2 0
v 0 2 1
v 0 3 1
v 0 3 0
v 0 3 0
v 1 3 0
v 1 3 1
v 0 3 1
v 1 0 1
v 2 0 1
v 2 1 1
v 1 1 1
v 1 0 0
v 2 0 0
v 2 1 0
v 1 1 0
v 1 0 0
v 2 0 0
v 2 0 1
v 1 0 1
v 1 1 1
v 2 1 1
v 2 2 1
v 1 2 1
v 1 1 0
v 2 1 0
v 2 2 0
v 1 2 0
v 1 2 1
v 2 2 1
v 2 3 1
v 1 3 1
v 1 2 0
v 2 2 0
v 2 3 0
v 1 3 0
v 1 3 0
v 2 3 0
v 2 3 1
v 1 3 1
v 2 0 1
v 3 0 1
v 3 1 1
v 2 1 1
v 2 0 0
v 3 0 0
v 3 1 0
v 2 1 0
v 3 0 0
v 3 0 1
v 3 1 1
v 3 1 0
v 2 0 0
v 3 0 0
v 3 0 1
v 2 0 1
v 2 1 1
v 3 1 1
v 3 2 1
v 2 2 1
v 2 1 0
v 3 1 0
v 3 2 0
v 2 2 0
v 3 1 0
v 3 1 1
v 3 2 1
v 3 2 0
v 2 2 1
v 3 2 1
v 3 3 1
v 2 3 1
v 2 2 0
v 3 2 0
v 3 3 0
v 2 3 0
v 3 2 0
v 3 2 1
v 3 3 1
v 3 3 0
v 2 3 0
v 3 3 0
v 3 3 1
v 2 3 1


vn 0 0 1
vn 0 0 1
vn 0 0 1
vn 0 0 1
vn 0 0 -1
vn 0 0 -1
vn 0 0 -1
vn 0 0 -1
vn -1 0 0
vn -1 0 0
vn -1 0 0
vn -1 0 0
vn 0 -1 0
vn 0 -1 0
vn 0 -1 0
vn 0 -1 0
vn 0 0 1
vn 0 0 1
vn 0 0 1
vn 0 0 1
vn 0 0 -1
vn 0 0 -1
vn 0 0 -1
vn 0 0 -1
vn -1 0 0
vn -1 0 0
vn -1 0 0
vn -1 0 0
vn 0 0 1
vn 0 0 1
vn 0 0 1
vn 0 0 1
vn 0 0 -1
vn 0 0 -1
vn 0 0 -1
vn 0 0 -1
vn -1 0 0
vn -1 0 0
vn -1 0 0
vn -1 0 0
vn 0 1 0
vn 0 1 0
vn 0 1 0
vn 0 1 0
vn 0 0 1
vn 0 0 1
vn 0 0 1
vn 0 0 1
vn 0 0 -1
vn 0 0 -1
vn 0 0 -1
vn 0 0 -1
vn 0 -1 0
vn 0 -1 0
vn 0 -1 0
vn 0 -1 0
vn 0 0 1
vn 0 0 1
vn 0 0 1
vn 0 0 1
vn 0 0 -1
vn 0 0 -1
vn 0 0 -1
vn 0 0 -1
vn 0 0 1
vn 0 0 1
vn 0 0 1
vn 0 0 1
vn 0 0 -1
vn 0 0 -1
vn 0 0 -1
vn 0 0 -1
vn 0 1 0
vn 0 1 0
vn 0 1 0
vn 0 1 0
vn 0 0 1
vn 0 0 1
vn 0 0 1
vn 0 0 1
vn 0 0 -1
vn 0 0 -1
vn 0 0 -1
vn 0 0 -1
vn 1 0 0
vn 1 0 0
vn 1 0 0
vn 1 0 0
vn 0 -1 0
vn 0 -1 0
vn 0 -1 0
vn 0 -1 0
vn 0 0 1
vn 0 0 1
vn 0 0 1
vn 0 0 1
vn 0 0 -1
vn 0 0 -1
vn 0 0 -1
vn 0 0 -1
vn 1 0 0
vn 1 0 0
vn 1 0 0
vn 1 0 0
vn 0 0 1
vn 0 0 1
vn 0 0 1
vn 0 0 1
vn 0 0 -1
vn 0 0 -1
vn 0 0 -1
vn 0 0 -1
vn 1 0 0
vn 1 0 0
vn 1 0 0
vn 1 0 0
vn 0 1 0
vn 0 1 0
vn 0 1 0
vn 0 1 0

f 3/3/3 1/1/1 2/2/2
f 3/3/3 4/4/4 1/1/1
f 7/7/7 6/6/6 5/5/5
f 7/7/7 5/5/5 8/8/8
f 12/12/12 9/9/9 10/10/10
f 11/11/11 12/12/12 10/10/10
f 13/13/13 14/14/14 15/15/15
f 13/13/13 15/15/15 16/16/16
f 19/19/19 17/17/17 18/18/18
f 19/19/19 20/20/20 17/17/17
f 23/23/23 22/22/22 21/21/21
f 23/23/23 21/21/21 24/24/24
f 28/28/28 25/25/25 26/26/26
f 27/27/27 28/28/28 26/26/26
f 31/31/31 29/29/29 30/30/30
f 31/31/31 32/32/32 29/29/29
f 35/35/35 34/34/34 33/33/33
f 35/35/35 33/33/33 36/36/36
f 40/40/40 37/37/37 38/38/38
f 39/39/39 40/40/40 38/38/38
f 41/41/41 43/43/43 42/42/42
f 41/41/41 44/44/44 43/43/43
f 47/47/47 45/45/45 46/46/46
f 47/47/47 48/48/48 45/45/45
f 51/51/51 50/50/50 49/49/49
f 51/51/51 49/49/49 52/52/52
f 53/53/53 54/54/54 55/55/55
f 53/53/53 55/55/55 56/56/56
f 59/59/59 57/57/57 58/58/58
f 59/59/59 60/60/60 57/57/57
f 63/63/63 62/62/62 61/61/61
f 63/63/63 61/61/61 64/64/64
f 67/67/67 65/65/65 66/66/66
f 67/67/67 68/68/68 65/65/65
f 71/71/71 70/70/70 69/69/69
f 71/71/71 69/69/69 72/72/72
f 73/73/73 75/75/75 74/74/74
f 73/73/73 76/76/76 75/75/75
f 79/79/79 77/77/77 78/78/78
f 79/79/79 80/80/80 77/77/77
f 83/83/83 82/82/82 81/81/81
f 83/83/83 81/81/81 84/84/84
f 88/88/88 86/86/86 85/85/85
f 87/87/87 86/86/86 88/88/88
f 89/89/89 90/90/90 91/91/91
f 89/89/89 91/91/91 92/92/92
f 95/95/95 93/93/93 94/94/94
f 95/95/95 96/96/96 93/93/93
f 99/99/99 98/98/98 97/97/97
f 99/99/99 97/97/97 100/100/100
f 104/104/104 102/102/102 101/101/101
f 103/103/103 102/102/102 104/104/104
f 107/107/107 105/105/105 106/106/106
f 107/107/107 108/108/108 105/105/105
f 111/111/111 110/110/110 109/109/109
f 111/111/111 109/109/109 112/112/112
f 116/116/116 114/114/114 113/113/113
f 115/115/115 114/114/114 116/116/116
f 117/117/117 119/119/119 118/118/118
f 117/117/117 120/120/120 119/119/119
